<svg width="20" height="20" viewBox="0 0 20 20" fill="none" xmlns="http://www.w3.org/2000/svg">
<path d="M7.8 3H11.4C11.4 2.52261 11.2104 2.06477 10.8728 1.72721C10.5352 1.38964 10.0774 1.2 9.6 1.2C9.12261 1.2 8.66477 1.38964 8.32721 1.72721C7.98964 2.06477 7.8 2.52261 7.8 3ZM6.6 3C6.6 2.20435 6.91607 1.44129 7.47868 0.87868C8.04129 0.316071 8.80435 0 9.6 0C10.3956 0 11.1587 0.316071 11.7213 0.87868C12.2839 1.44129 12.6 2.20435 12.6 3H18.6C18.7591 3 18.9117 3.06321 19.0243 3.17574C19.1368 3.28826 19.2 3.44087 19.2 3.6C19.2 3.75913 19.1368 3.91174 19.0243 4.02426C18.9117 4.13679 18.7591 4.2 18.6 4.2H17.3352L15.9024 16.6128C15.8011 17.4902 15.3808 18.2998 14.7214 18.8875C14.0621 19.4752 13.2097 19.7999 12.3264 19.8H6.8736C5.99035 19.7999 5.13794 19.4752 4.47856 18.8875C3.81919 18.2998 3.39888 17.4902 3.2976 16.6128L1.8648 4.2H0.6C0.44087 4.2 0.288258 4.13679 0.175736 4.02426C0.0632142 3.91174 0 3.75913 0 3.6C0 3.44087 0.0632142 3.28826 0.175736 3.17574C0.288258 3.06321 0.44087 3 0.6 3H6.6ZM4.4892 16.476C4.55691 17.0609 4.83726 17.6005 5.2769 17.9921C5.71655 18.3837 6.28482 18.6001 6.8736 18.6H12.3264C12.9152 18.6001 13.4835 18.3837 13.9231 17.9921C14.3627 17.6005 14.6431 17.0609 14.7108 16.476L16.1268 4.2H3.0732L4.4892 16.476ZM7.8 7.2C7.95913 7.2 8.11174 7.26321 8.22426 7.37574C8.33679 7.48826 8.4 7.64087 8.4 7.8V15C8.4 15.1591 8.33679 15.3117 8.22426 15.4243C8.11174 15.5368 7.95913 15.6 7.8 15.6C7.64087 15.6 7.48826 15.5368 7.37573 15.4243C7.26321 15.3117 7.2 15.1591 7.2 15V7.8C7.2 7.64087 7.26321 7.48826 7.37573 7.37574C7.48826 7.26321 7.64087 7.2 7.8 7.2ZM12 7.8C12 7.64087 11.9368 7.48826 11.8243 7.37574C11.7117 7.26321 11.5591 7.2 11.4 7.2C11.2409 7.2 11.0883 7.26321 10.9757 7.37574C10.8632 7.48826 10.8 7.64087 10.8 7.8V15C10.8 15.1591 10.8632 15.3117 10.9757 15.4243C11.0883 15.5368 11.2409 15.6 11.4 15.6C11.5591 15.6 11.7117 15.5368 11.8243 15.4243C11.9368 15.3117 12 15.1591 12 15V7.8Z" fill="white"/>
</svg>
